<?xml version="1.0" encoding="utf-8"?>
<!-- Generator: Adobe Illustrator 16.0.0, SVG Export Plug-In . SVG Version: 6.00 Build 0)  -->
<!DOCTYPE svg PUBLIC "-//W3C//DTD SVG 1.0//EN" "http://www.w3.org/TR/2001/REC-SVG-20010904/DTD/svg10.dtd">
<svg version="1.0" id="Layer_1" xmlns="http://www.w3.org/2000/svg" xmlns:xlink="http://www.w3.org/1999/xlink" x="0px" y="0px"
	 width="100px" height="100px" viewBox="0 0 100 100" enable-background="new 0 0 100 100" xml:space="preserve">
<path fill="#311B92" d="M81.667,55.561c-2.638-1.521-5.513-2.172-8.351-2.164c-2.112,0.148-4.407-0.605-6.354-2.272
	c-1.956-1.673-3.199-3.958-3.64-6.295c-0.437-2.351-0.24-4.623,1.045-6.522c1.423-2.456,2.299-5.268,2.299-8.309
	c0-9.206-7.461-16.667-16.667-16.667c-9.206,0-16.667,7.461-16.667,16.667c0,3.041,0.874,5.853,2.299,8.309
	c1.289,1.903,1.478,4.171,1.041,6.519c-0.436,2.338-1.68,4.626-3.638,6.295c-1.948,1.671-4.238,2.426-6.355,2.275
	c-2.832-0.006-5.708,0.643-8.339,2.162c-7.977,4.605-10.707,14.799-6.104,22.771c4.604,7.974,14.795,10.703,22.771,6.101
	c2.629-1.521,4.629-3.687,6.041-6.146c1.022-2.064,2.949-3.583,5.248-4.38c2.285-0.788,4.941-0.856,7.418,0.003
	c2.468,0.853,4.287,2.474,5.234,4.382c1.415,2.456,3.411,4.624,6.045,6.146c7.976,4.602,18.168,1.872,22.771-6.101
	C92.367,70.357,89.637,60.163,81.667,55.561z M26.667,80c-5.521,0-10-4.477-10-10s4.479-10,10-10c5.526,0,10,4.477,10,10
	S32.193,80,26.667,80z M50,19.997c5.524,0,10,4.479,10,10c0,5.524-4.477,10-10,10c-5.521,0-10-4.476-10-10
	C40,24.476,44.479,19.997,50,19.997z M50,68.33c-6.441,0-11.667-5.225-11.667-11.666c0-6.442,5.226-11.668,11.667-11.668
	c6.442,0,11.667,5.226,11.667,11.668C61.667,63.105,56.441,68.33,50,68.33z M73.333,80c-5.521,0-10-4.477-10-10s4.479-10,10-10
	c5.524,0,10,4.477,10,10S78.857,80,73.333,80z"/>
<circle fill="#03A9F4" cx="50" cy="56.664" r="5"/>
<circle fill="#03A9F4" cx="26.667" cy="70" r="3.333"/>
<circle fill="#03A9F4" cx="73.333" cy="70" r="3.333"/>
<circle fill="#03A9F4" cx="50" cy="29.997" r="3.333"/>
</svg>
